# xmcd
#
# Track frame offsets:
#	150
#	14093
#	28201
#	43207
#	58547
#	75673
#	91496
#	105502
#	121880
#	139558
#	158271
#	186228
#	209207
#	224506
#	237573
#	257280
#	275521
#	292091
#	316741
#	339813
#
# Disc length: 4731 seconds
#
# Revision: 1
# Processed by: cddbd v1.5.1PL2 Copyright (c) Steve Scherf et al.
# Submitted via: EasyCDDAExtractor 5.0.6
#
DISCID=25127914
DTITLE=Various Artist - Get Funked Disc 2
DYEAR=2003
DGENRE=Funk
TTITLE0=Kool and The Gang - Jungle Boogie
TTITLE1=Wild Cherry - Play That Funky Music
TTITLE2=Rick James - Superfreak
TTITLE3=The Whispers - And The Beat Goes On
TTITLE4=Odyssey - Use It Up And Wear It Out
TTITLE5=Earth, Wind and Fire - Let's Groove
TTITLE6=The Hues Corporation - Rock The Boat
TTITLE7=Emotions - Best Of My Love
TTITLE8=La Belle - Lady Marmalade
TTITLE9=The Real Thing - Can You Feel The Force
TTITLE10=Lakeside - Fantastic Voyage
TTITLE11=Midnight Star - Midas Touch
TTITLE12=Shalamar - A Night To Remember
TTITLE13=Sly and The Family Stone - Dance To The Music
TTITLE14=Luther Vandross - Stop To Love
TTITLE15=Cameo - Word Up
TTITLE16=Herbie Hancock - Rockit
TTITLE17=Johnny Kemp - Just Got Paid
TTITLE18=Cheryl Lynn - Got To Be Real
TTITLE19=Edwin Starr - War
EXTD=
EXTT0=
EXTT1=
EXTT2=
EXTT3=
EXTT4=
EXTT5=
EXTT6=
EXTT7=
EXTT8=
EXTT9=
EXTT10=
EXTT11=
EXTT12=
EXTT13=
EXTT14=
EXTT15=
EXTT16=
EXTT17=
EXTT18=
EXTT19=
PLAYORDER=
